/* XPM */
static char *result[] = {
/* columns rows colors chars-per-pixel */
"64 64 86 1 ",
"  c #0054E1",
". c #0056E1",
"X c #0058E1",
"o c #0058E2",
"O c #005AE2",
"+ c #005CE2",
"@ c #005CE3",
"# c #005EE3",
"$ c #005FE3",
"% c #0060E3",
"& c #0061E3",
"* c #0061E4",
"= c #0063E4",
"- c #0065E5",
"; c #0067E5",
": c #0069E5",
"> c #0069E6",
", c #006BE6",
"< c #006CE6",
"1 c #006EE7",
"2 c #0070E7",
"3 c #0072E8",
"4 c #0074E8",
"5 c #0076E8",
"6 c #0078E9",
"7 c #0079E9",
"8 c #007BE9",
"9 c #007BEA",
"0 c #007DEA",
"q c #007FEB",
"w c #0081EB",
"e c #0083EB",
"r c #0083EC",
"t c #0084EC",
"y c #0086EC",
"u c #0088EC",
"i c #0088ED",
"p c #008AED",
"a c #008CED",
"s c #008CEE",
"d c #008EEE",
"f c #008FEE",
"g c #008FEF",
"h c #0091EE",
"j c #0091EF",
"k c #0093EF",
"l c #0095EF",
"z c #0095F0",
"x c #0097F0",
"c c #0099F0",
"v c #0099F1",
"b c #009AF0",
"n c #009AF1",
"m c #009CF1",
"M c #009EF1",
"N c #009EF2",
"B c #00A0F2",
"V c #00A2F3",
"C c #00A4F3",
"Z c #00A5F3",
"A c #00A6F3",
"S c #00A7F4",
"D c #00A9F4",
"F c #00ABF5",
"G c #00ADF5",
"H c #00AFF5",
"J c #00B1F6",
"K c #00B2F6",
"L c #00B2F7",
"P c #00B4F7",
"I c #00B6F7",
"U c #00B8F7",
"Y c #00B8F8",
"T c #00BAF8",
"R c #00BCF8",
"E c #00BEF9",
"W c #00BFF9",
"Q c #00C1F9",
"! c #00C1FA",
"~ c #00C3FA",
"^ c #00C5FA",
"/ c #00C5FB",
"( c #00C7FB",
") c #00C9FB",
"_ c #00C9FC",
"` c None",
/* pixels */
"))__________)____________))__________))___________))__________))",
"(```````````(````````````(````````````(````````````(```````````(",
"/```````````^`````````````````````````/````````````^```````````/",
"~```````````~`````````````````````````~````````````~```````````~",
"!```````````Q`````````````````````````!````````````!```````````!",
"W```````````W`````````````````````````W````````````W```````````W",
"E```````````E`````````````````````````E````````````E```````````E",
"R```````````R`````````````````````````R````````````R```````````R",
"T```````````T`````````````````````````T````````````T```````````T",
"U```````````Y`````````````````````````Y````````````Y```````````U",
"I```````````I`````````````````````````I````````````I```````````I",
"P```````````P`````````````````````````P````````````P```````````P",
"KKKKKKKKKKKKL`````````````KKKKKKKKKKKK`````````````LKKKKKKKKKKKK",
"J``````````````````````````````````````````````````````````````J",
"H``````````````````````````````````````````````````````````````H",
"G``````````````````````````````````````````````````````````````G",
"F``````````````````````````````````````````````````````````````F",
"D``````````````````````````````````````````````````````````````D",
"S``````````````````````````````````````````````````````````````S",
"A`````````````````````````ZZZZZZZZZZZZ`````````````````````````A",
"C````````````````````````C````````````C````````````````````````C",
"V````````````````````````V`````````````````````````````````````V",
"B````````````````````````B````````````B````````````````````````B",
"N``````````````````````N````````````````N``````````````````````M",
"m``````````````````````````````````````````````````````````````m",
"nbbbbbbbbbbb````````b`n``````````````````n`b``````````````````bn",
"c```````````v``````c````````````````````````c``````v```````````c",
"x```````````x``````x````````````````````````x``````x```````````x",
"z```````````z``````l````````````````````````z``````z```````````z",
"k```````````k``````k````````````````````````k``````k```````````k",
"j```````````h``````j````````````````````````h``````h```````````j",
"f```````````f``````g````````````````````````f``````f```````````f",
"d```````````d``````d````````````````````````d``````d```````````d",
"a```````````a``````s````````````````````````a``````a```````````a",
"p```````````p``````p````````````````````````p``````p```````````p",
"i```````````u``````i````````````````````````i``````u```````````i",
"y```````````y``````y````````````````````````y``````y```````````y",
"t```````````t``````t````````````````````````t``````t```````````t",
"eeeeeeeeeeee````````rrr``````````````````e`e````````rrrrrrrrrree",
"w``````````````````````````````````````````````````````````````w",
"q``````````````````````q````````````````q``````````````````````q",
"0````````````````````````0````````````0````````````````````````0",
"8`````````````````````````````````````9````````````````````````8",
"7````````````````````````7````````````7````````````````````````7",
"6`````````````````````````666666666666`````````````````````````6",
"5``````````````````````````````````````````````````````````````5",
"4``````````````````````````````````````````````````````````````4",
"3``````````````````````````````````````````````````````````````3",
"2``````````````````````````````````````````````````````````````2",
"1``````````````````````````````````````````````````````````````1",
"<``````````````````````````````````````````````````````````````<",
",,,,,,,,,,,,,`````````````,,,,,,,,,,,,`````````````,,,,,,,,,,,,,",
">```````````>````````````:````````````>````````````>```````````>",
";```````````;````````````;````````````;````````````;```````````;",
"-```````````-````````````-````````````-````````````-```````````-",
"=```````````=````````````=````````````=````````````=```````````=",
"*```````````*````````````*````````````&````````````*```````````*",
"$```````````$````````````%````````````%````````````$```````````$",
"#```````````#````````````#````````````#````````````#```````````#",
"@```````````+````````````@````````````@````````````+```````````@",
"O```````````O````````````O````````````O````````````O```````````O",
"o```````````X````````````o````````````o````````````X```````````o",
".```````````.````````````.````````````.````````````.```````````.",
"                                                                "
};
