/* XPM */
static char *result[] = {
/* columns rows colors chars-per-pixel */
"64 64 192 2 ",
"   c #6E03A8",
".  c #6F04A8",
"X  c #7005A8",
"o  c #7105A9",
"O  c #7206A8",
"+  c #7307A9",
"@  c #7508A9",
"#  c #7609AA",
"$  c #780AAA",
"%  c #790AAA",
"&  c #790BAA",
"*  c #7A0BAA",
"=  c #7A0CAA",
"-  c #7B0CAA",
";  c #7C0DAA",
":  c #7D0DAA",
">  c #7C0CAB",
",  c #7C0DAB",
"<  c #7D0DAB",
"1  c #7F0EAB",
"2  c #800FAB",
"3  c #800FAC",
"4  c #8110AB",
"5  c #8210AB",
"6  c #8210AC",
"7  c #8311AC",
"8  c #8412AC",
"9  c #8512AC",
"0  c #8613AC",
"q  c #8613AD",
"w  c #8814AD",
"e  c #8915AD",
"r  c #8A16AD",
"t  c #8B16AD",
"y  c #8A16AE",
"u  c #8B16AE",
"i  c #8C17AD",
"p  c #8D18AE",
"a  c #8E18AE",
"s  c #8F19AE",
"d  c #901AAE",
"f  c #901AAF",
"g  c #911AAF",
"h  c #921AAF",
"j  c #921BAF",
"k  c #931BAF",
"l  c #931CAF",
"z  c #941CAF",
"x  c #951CAF",
"c  c #961DAF",
"v  c #951CB0",
"b  c #951DB0",
"n  c #961EB0",
"m  c #971EB0",
"M  c #981EB0",
"N  c #991FB0",
"B  c #9A20B1",
"V  c #9B20B1",
"C  c #9C21B1",
"Z  c #9D22B1",
"A  c #9F23B1",
"S  c #A024B1",
"D  c #A124B1",
"F  c #A024B2",
"G  c #A225B2",
"H  c #A326B2",
"J  c #A426B3",
"K  c #A427B3",
"L  c #A527B3",
"P  c #A627B3",
"I  c #A628B2",
"U  c #A628B3",
"Y  c #A728B3",
"T  c #A729B3",
"R  c #A829B3",
"E  c #A929B3",
"W  c #A92AB3",
"Q  c #AA2AB3",
"!  c #AA2BB3",
"~  c #AA2AB4",
"^  c #AB2BB4",
"/  c #AC2BB4",
"(  c #AC2CB4",
")  c #AD2CB4",
"_  c #AE2DB4",
"`  c #AF2DB4",
"'  c #AE2DB5",
"]  c #AF2DB5",
"[  c #AF2EB5",
"{  c #B02EB4",
"}  c #B02EB5",
"|  c #B12FB5",
" . c #B22FB5",
".. c #B330B5",
"X. c #B330B6",
"o. c #B431B5",
"O. c #B531B5",
"+. c #B632B5",
"@. c #B431B6",
"#. c #B531B6",
"$. c #B632B6",
"%. c #B733B6",
"&. c #B833B6",
"*. c #B934B6",
"=. c #B934B7",
"-. c #BA35B6",
";. c #BB35B6",
":. c #BA34B7",
">. c #BA35B7",
",. c #BB35B7",
"<. c #BC36B7",
"1. c #BD36B7",
"2. c #BD37B7",
"3. c #BE37B7",
"4. c #BF38B7",
"5. c #BF38B8",
"6. c #C038B8",
"7. c #C039B8",
"8. c #C139B8",
"9. c #C239B8",
"0. c #C33AB8",
"q. c #C33BB8",
"w. c #C33AB9",
"e. c #C43BB8",
"r. c #C53BB8",
"t. c #C63CB9",
"y. c #C73DB9",
"u. c #C83DB9",
"i. c #C93EB9",
"p. c #C93EBA",
"a. c #CA3FBA",
"s. c #CB3FBA",
"d. c #CC40BA",
"f. c #CD41BA",
"g. c #CF42BA",
"h. c #CF42BB",
"j. c #D043BB",
"k. c #D144BB",
"l. c #D244BB",
"z. c #D445BB",
"x. c #D446BB",
"c. c #D344BC",
"v. c #D345BC",
"b. c #D446BC",
"n. c #D546BC",
"m. c #D646BC",
"M. c #D647BC",
"N. c #D747BC",
"B. c #D748BC",
"V. c #D948BC",
"C. c #D848BD",
"Z. c #D948BD",
"A. c #DA49BD",
"S. c #DB4ABD",
"D. c #DC4ABD",
"F. c #DD4BBD",
"G. c #DD4BBE",
"H. c #DE4CBD",
"J. c #DF4CBE",
"K. c #E04DBE",
"L. c #E14EBE",
"P. c #E34FBE",
"I. c #E34FBF",
"U. c #E450BF",
"Y. c #E550BF",
"T. c #E651BF",
"R. c #E752BF",
"E. c #E752C0",
"W. c #E852C0",
"Q. c #E953C0",
"!. c #EA54C0",
"~. c #EC55C0",
"^. c #ED55C0",
"/. c #ED56C0",
"(. c #ED56C1",
"). c #EE56C1",
"_. c #EF56C1",
"`. c #EF57C1",
"'. c #F057C1",
"]. c #F058C1",
"[. c #F158C1",
"{. c #F359C1",
"}. c #F158C2",
"|. c #F359C2",
" X c #F45AC2",
".X c #F65BC2",
"XX c #F75CC3",
"oX c #F85DC3",
"OX c #F95DC3",
"+X c #FA5EC3",
"@X c #FB5FC3",
"#X c None",
/* pixels */
"#X#X#X#X#X#X#X#X#X#X#X#X#X#X#X#X#X#X#X#X#X#X#X#X#X#X#X#X#X#X#X#X#X#X#X#X#X#X#X#X#X#X#X#X#X#X#X#X#X#X#X#X#X#X#X#X#X#X#X#X#X#X#X#X",
"#X#X#X#X#X#X#X#X#X#X#X#X#X#X#X#X#X#X#X#X#X#X#X#X#X#X#X#X#X#X#X#X#X#X#X#X#X#X#X#X#X#X#X#X#X#X#X#X#X#X#X#X#X#X#X#X#X#X#X#X#X#X#X#X",
"#X#X#X#X#X#X#X#X#X#X#X#X#X#X#X#X#X#X#X#X#X#X#X#X#X#X#X#X#X#X#X#X#X#X#X#X#X#X#X#X#X#X#X#X#X#X#X#X#X#X#X#X#X#X#X#X#X#X#X#X#X#X#X#X",
"#X#X#X#X#X#X#X#X#X#X#X#X#X#X#X#X#X#X#X#X#X#X#X#X#X#X#X#X#X#X#X#X#X#X#X#X#X#X#X#X#X#X#X#X#X#X#X#X#X#X#X#X#X#X#X#X#X#X#X#X#X#X#X#X",
"#X#X#X#X#X#X#X#X#X#X#X#X#X#X#X#X#X#X#X#X#X#X#X#X#X#X#X#X#X#X#X#X#X#X#X#X#X#X#X#X#X#X#X#X#X#X#X#X#X#X#X#X#X#X#X#X#X#X#X#X#X#X#X#X",
"#X#X#X#X#X#X#X#X#X#X,.1.#X#X#X#X#X#X#X#X#X#X#X#X#X#X#X#X#X#X#X#X#X#X#X#X#X#X#X#X#X#X#X#X#X#X#X#X#X#X#X#XoX+X#X#X#X#X#X#X#X#X#X#X",
"#X#X#X#X#X#X#X#X%.=.>.<.2.#X#X#X#X#X#X#X#X#X#X#X#X#X#X#X#X#X#X#X#X#X#X#X#X#X#X#X#X#X#X#X#X#X#X#X#X#X#X.XXXOX+X@X#X#X#X#X#X#X#X#X",
"#X#X#X#X#X#X#XO.$.%.=.-.<.2.#X#X#X#X#X#X#X#X#X#X#X#X#X#X#X#X#X#X#X#X#X#X#X#X#X#X#X#X#X#X#X#X#X#X#X#X|. X.XXXOX+X@X#X#X#X#X#X#X#X",
"#X#X#X#X#X#X#X..@.$.%.=.-.<.1.#X#X#X#X#X#X#X#X#X#X#X#X#X#X#X#X#X#X#X#X#X#X#X#X#X#X#X#X#X#X#X#X#X#X].[.{. X.XXXOX+X#X#X#X#X#X#X#X",
"#X#X#X#X#X#X#X ...#.$.%.=.>.,.#X#X#X#X#X#X#X#X#X#X#X#X#X#X#X#X#X#X#X#X#X#X#X#X#X#X#X#X#X#X#X#X#X#X`.'.}.{. X.XXXOX#X#X#X#X#X#X#X",
"#X#X#X#X#X#X#X}  ...#.$.%.=.#X#X#X#X#X#X#X#X#X#X#X#X#X#X#X#X#X#X#X#X#X#X#X#X#X#X#X#X#X#X#X#X#X#X#X#X).'.}.{. X.XXX#X#X#X#X#X#X#X",
"#X#X#X#X#X#X#X[ {  ...#.$.%.#X#X#X#X#X#X#X#X#X#X#X#X#X#X#X#Xj.k.c.z.#X#X#X#X#X#X#X#X#X#X#X#X#X#X#X#X/.).'.}.{. X.X#X#X#X#X#X#X#X",
"#X#X#X#X#X#X#X#X[ }  ...@.#X#X#X#X#X#X#X#X#X#X#X#X#Xi.a.d.f.h.j.l.v.b.M.N.C.#X#X#X#X#X#X#X#X#X#X#X#X#X/.).'.}.|.#X#X#X#X#X#X#X#X",
"#X#X#X#X#X#X#X#X#X] }  ...#X#X#X#X#X#X#X#X#X#X0.e.t.y.p.a.d.f.g.j.l.v.b.M.B.Z.A.S.#X#X#X#X#X#X#X#X#X#X~.^._.'.#X#X#X#X#X#X#X#X#X",
"#X#X#X#X#X#X#X#X#X) ] } | #X#X#X#X#X#X#X#X#X6.9.w.e.t.y.p.a.d.f.g.j.l.v.b.M.B.Z.A.S.#X#X#X#X#X#X#X#X#X!.~.(._.#X#X#X#X#X#X#X#X#X",
"#X#X#X#X#X#X#X#X#X/ ) ] { #X#X#X#X#X#X#X#X2.5.7.9.w.e.t.y.p.a.d.f.g.j.l.v.b.M.B.V.A.D.#X#X#X#X#X#X#X#XQ.!.~.(.#X#X#X#X#X#X#X#X#X",
"#X#X#X#X#X#X#X#X#XQ / ) _ #X#X#X#X#X#X*.>.<.2.5.7.9.w.e.t.y.p.a.d.f.g.j.l.v.b.M.B.V.A.D.G.#X#X#X#X#X#XW.Q.!.~.#X#X#X#X#X#X#X#X#X",
"#X#X#X#X#X#X#X#X#XE Q / ) #X#X#X#X#X$.%.=.-.<.2.5.7.9.w.e.t.y.p.a.d.f.g.j.l.v.b.M.B.V.A.D.G.#X#X#X#X#XT.R.Q.!.#X#X#X#X#X#X#X#X#X",
"#X#X#X#X#X#X#X#X#XT W ~ ^ #X#X#X#X#X@.$.%.=.-.<.2.5.7.9.w.e.t.y.p.a.d.f.g.j.l.v.b.M.B.V.A.D.#X#X#X#X#XY.T.E.Q.#X#X#X#X#X#X#X#X#X",
"#X#X#X#X#X#X#X#X#XU T W ~ ^ ) _ {  ...#.$.%.=.-.<.2.5.7.9.w.e.t.y.p.a.d.f.g.j.l.v.b.M.B.V.A.D.F.H.K.L.I.U.T.E.#X#X#X#X#X#X#X#X#X",
"#X#X#X#X#X#X#X#X#XL U T W ~ / ) ] }  ...#.$.%.=.-.<.2.5.7.9.w.e.t.y.p.a.d.f.g.j.l.v.b.M.B.V.A.D.G.J.K.L.P.U.T.#X#X#X#X#X#X#X#X#X",
"#X#X#X#X#X#X#X#X#XH L U T W Q / ) ] }  ...#.$.%.=.-.<.2.5.7.9.w.e.t.y.p.a.d.f.g.j.l.v.b.M.B.V.A.D.G.J.K.L.P.U.#X#X#X#X#X#X#X#X#X",
"#X#X#X#X#X#X#X#X#XG H L U T W Q / ) ] }  ...#.$.%.=.-.<.2.5.7.9.w.e.t.y.p.a.d.f.g.j.l.v.b.M.B.V.A.D.G.J.K.L.I.#X#X#X#X#X#X#X#X#X",
"#X#X#X#X#X#X#X#X#X#X#X#X#X#X#XW Q / ) ] }  ...#.$.%.=.-.<.2.5.7.9.w.e.t.y.p.a.d.f.g.j.l.v.b.M.B.V.#X#X#X#X#X#X#X#X#X#X#X#X#X#X#X",
"#X#X#X#X#X#X#X#X#X#X#X#X#X#X#XT W Q / ) ] }  ...#.$.%.=.-.<.2.5.7.9.w.e.t.y.p.a.d.f.g.j.l.v.b.M.N.#X#X#X#X#X#X#X#X#X#X#X#X#X#X#X",
"#X#X#X#X#X#X#X#X#X#X#X#X#X#XL U T W Q / ) ] }  ...#.$.%.=.-.<.2.5.7.9.w.e.t.y.p.a.d.f.g.j.l.v.b.M.N.#X#X#X#X#X#X#X#X#X#X#X#X#X#X",
"#X#X#X#X#X#X#X#X#X#X#X#X#X#XH L U T W Q / ) ` }  ...#.$.%.=.-.<.2.5.7.9.w.e.t.y.p.a.d.f.g.j.l.v.b.m.#X#X#X#X#X#X#X#X#X#X#X#X#X#X",
"#X#X#X#X#X#X#X#X#X#X#X#X#X#XG H L U T W ~ / #X[ }  ...#.$.%.=.-.<.2.5.7.9.0.e.t.u.#Xs.d.f.g.j.l.v.x.#X#X#X#X#X#X#X#X#X#X#X#X#X#X",
"#X#X#X#X#X#X#X#X#X#X#X#X#X#XS G H L U T E #X#X#X#X|  ...o.$.%.=.-.<.2.5.6.9.q.#X#X#X#Xa.d.f.g.j.l.v.#X#X#X#X#X#X#X#X#X#X#X#X#X#X",
"#X#X#X#X#X#X#X#X#X#X#X#X#X#XA S G H L U Y #X#X#X#X#X#X .X.o.$.%.=.-.<.2.5.#X#X#X#X#X#Xp.a.d.f.g.j.k.#X#X#X#X#X#X#X#X#X#X#X#X#X#X",
"#X#X#X#X#X#X#Xk z c m N B C Z A S G H L P #X#X#X#X#X#X#X#XX.o.$.%.=.>.#X#X#X#X#X#X#X#Xu.p.a.d.f.g.j.k.v.b.m.N.Z.A.#X#X#X#X#X#X#X",
"#X#X#X#X#X#Xd j k x c M N B C Z A S G H J #X#X#X#X#X#X#X#X#X..o.$.%.#X#X#X#X#X#X#X#X#Xt.y.p.a.d.f.g.j.l.v.b.M.B.Z.A.#X#X#X#X#X#X",
"#X#X#X#X#X#Xs d h k x c m N B C Z A S G H #X#X#X#X#X#X#X#X#X ...#.$.#X#X#X#X#X#X#X#X#Xr.t.y.p.a.d.f.g.j.k.v.b.M.B.Z.#X#X#X#X#X#X",
"#X#X#X#X#X#X#Xs d j l v c M N B C Z A S G #X#X#X#X#X#X#X#X] }  ...#.+.#X#X#X#X#X#X#X#X0.e.t.y.p.a.d.f.g.j.l.v.n.M.#X#X#X#X#X#X#X",
"#X#X#X#X#X#X#X#X#X#X#X#X#X#XM N B C Z A S G H K I Y E ~ / ) ] }  ...#.$.%.=.-.<.2.5.7.9.w.e.t.y.p.a.#X#X#X#X#X#X#X#X#X#X#X#X#X#X",
"#X#X#X#X#X#X#X#X#X#X#X#X#X#Xc m N B C Z A S G H L U T W ~ / ) #X#X ...#.$.%.=.>.<.2.5.7.9.w.e.t.y.p.#X#X#X#X#X#X#X#X#X#X#X#X#X#X",
"#X#X#X#X#X#X#X#X#X#X#X#X#X#Xv c M N B C Z A S G H L U T W ~ #X#X#X#X ...#.$.%.=.-.<.2.5.7.9.w.e.t.y.#X#X#X#X#X#X#X#X#X#X#X#X#X#X",
"#X#X#X#X#X#X#X#X#X#X#X#X#X#Xl x c M N B C Z A S G H L U T E #X#X#X#X}  ...#.$.%.=.-.<.2.5.7.9.w.e.t.#X#X#X#X#X#X#X#X#X#X#X#X#X#X",
"#X#X#X#X#X#X#X#X#X#X#X#X#X#Xj k x c M N B C Z A S G H L U Y #X#X#X#X] }  ...#.$.%.=.-.<.2.5.7.9.w.e.#X#X#X#X#X#X#X#X#X#X#X#X#X#X",
"#X#X#X#X#X#X#X#X#X#X#X#X#X#Xg h k x c M N B C Z A S G H L I #X#X#X#X) ] }  ...#.$.%.=.-.<.2.5.7.9.0.#X#X#X#X#X#X#X#X#X#X#X#X#X#X",
"#X#X#X#X#X#X#X#X#X#X#X#X#X#Xs f h k x c M N B C Z A S G H K #X#X#X#X/ ) ] }  ...#.$.%.=.-.<.2.5.7.8.#X#X#X#X#X#X#X#X#X#X#X#X#X#X",
"#X#X#X#X#X#X#X#X#X0 w e y i p s f h k x c M N B C Z A S G H J #X#XW Q / ) ] }  ...#.$.%.=.-.<.2.5.7.9.w.e.t.y.#X#X#X#X#X#X#X#X#X",
"#X#X#X#X#X#X#X#X#X9 q w e y i p s f h k x c M N B C Z A S G H K U T E Q / ) ] }  ...#.$.%.=.-.<.2.5.7.9.w.e.t.#X#X#X#X#X#X#X#X#X",
"#X#X#X#X#X#X#X#X#X7 9 q w e r i p s f h k x c M N B C #X#XS G H L U T #X#X( ) ] }  ...#.$.%.*.-.<.2.4.6.9.w.e.#X#X#X#X#X#X#X#X#X",
"#X#X#X#X#X#X#X#X#X6 7 9 q w e u i a s d h k x c M N #X#X#X#XS G H L #X#X#X#X/ ) ] }  ...@.$.&.=.;.<.3.4.6.9.w.#X#X#X#X#X#X#X#X#X",
"#X#X#X#X#X#X#X#X#X3 5 7 8 #X#X#X#X#X#Xs f h k x c m #X#X#X#XA S G H #X#X#X#X! / ) ] }  ...#X#X#X#X#X#X3.4.7.9.#X#X#X#X#X#X#X#X#X",
"#X#X#X#X#X#X#X#X#X1 3 6 7 #X#X#X#X#X#Xa s f h k x c #X#X#X#XZ A S G #X#X#X#XW Q / ) ] } | #X#X#X#X#X#X<.2.5.7.#X#X#X#X#X#X#X#X#X",
"#X#X#X#X#X#X#X#X#X< 1 3 4 #X#X#X#X#X#Xi p s f h k z #X#X#X#XC Z A F #X#X#X#XR E Q / ) ] { #X#X#X#X#X#X;.<.2.5.#X#X#X#X#X#X#X#X#X",
"#X#X#X#X#X#X#X#X#X; < 1 2 #X#X#X#X#X#Xt i p s f j k #X#X#X#XV C Z A #X#X#X#XU T W Q / ) ' #X#X#X#X#X#X=.-.<.2.#X#X#X#X#X#X#X#X#X",
"#X#X#X#X#X#X#X#X#X= , < 1 #X#X#X#X#X#X#Xr i p s f h #X#X#X#XN B C Z #X#X#X#XL U T W Q / #X#X#X#X#X#X#X&.*.-.<.#X#X#X#X#X#X#X#X#X",
"#X#X#X#X#X#X#X#X#X& - , : #X#X#X#X#X#X#Xe r i p s f #X#X#X#XM N B C #X#X#X#XH L U T W ~ #X#X#X#X#X#X#X$.%.=.>.#X#X#X#X#X#X#X#X#X",
"#X#X#X#X#X#X#X#X# $ & - > #X#X#X#X#X#X#X#Xe y i p s #X#X#X#Xc m N B #X#X#X#XG H L U T #X#X#X#X#X#X#X#X#.$.%.=.:.#X#X#X#X#X#X#X#X",
"#X#X#X#X#X#X#X+ @ # $ & - > #X#X#X#X#X#X#X#X#Xt i a #X#X#X#Xb n M N #X#X#X#XD G H #X#X#X#X#X#X#X#X#X ...#.$.%.=.:.#X#X#X#X#X#X#X",
"#X#X#X#X#X#X#XO + @ # $ & - #X#X#X#X#X#X#X#X#X#X#X#X#X#X#X#X#X#X#X#X#X#X#X#X#X#X#X#X#X#X#X#X#X#X#X#X}  ...#.$.%.=.#X#X#X#X#X#X#X",
"#X#X#X#X#X#X#XX O + @ # $ & * #X#X#X#X#X#X#X#X#X#X#X#X#X#X#X#X#X#X#X#X#X#X#X#X#X#X#X#X#X#X#X#X#X#X_ ` }  ...#.$.%.#X#X#X#X#X#X#X",
"#X#X#X#X#X#X#X. X O + @ # $ % #X#X#X#X#X#X#X#X#X#X#X#X#X#X#X#X#X#X#X#X#X#X#X#X#X#X#X#X#X#X#X#X#X#X( ) ] }  ...#.$.#X#X#X#X#X#X#X",
"#X#X#X#X#X#X#X  . X O + @ # #X#X#X#X#X#X#X#X#X#X#X#X#X#X#X#X#X#X#X#X#X#X#X#X#X#X#X#X#X#X#X#X#X#X#X#X/ ) ] }  ...o.#X#X#X#X#X#X#X",
"#X#X#X#X#X#X#X#X  . X O + #X#X#X#X#X#X#X#X#X#X#X#X#X#X#X#X#X#X#X#X#X#X#X#X#X#X#X#X#X#X#X#X#X#X#X#X#X#X/ ) ` }  .#X#X#X#X#X#X#X#X",
"#X#X#X#X#X#X#X#X#X#X. o #X#X#X#X#X#X#X#X#X#X#X#X#X#X#X#X#X#X#X#X#X#X#X#X#X#X#X#X#X#X#X#X#X#X#X#X#X#X#X#X( _ #X#X#X#X#X#X#X#X#X#X",
"#X#X#X#X#X#X#X#X#X#X#X#X#X#X#X#X#X#X#X#X#X#X#X#X#X#X#X#X#X#X#X#X#X#X#X#X#X#X#X#X#X#X#X#X#X#X#X#X#X#X#X#X#X#X#X#X#X#X#X#X#X#X#X#X",
"#X#X#X#X#X#X#X#X#X#X#X#X#X#X#X#X#X#X#X#X#X#X#X#X#X#X#X#X#X#X#X#X#X#X#X#X#X#X#X#X#X#X#X#X#X#X#X#X#X#X#X#X#X#X#X#X#X#X#X#X#X#X#X#X",
"#X#X#X#X#X#X#X#X#X#X#X#X#X#X#X#X#X#X#X#X#X#X#X#X#X#X#X#X#X#X#X#X#X#X#X#X#X#X#X#X#X#X#X#X#X#X#X#X#X#X#X#X#X#X#X#X#X#X#X#X#X#X#X#X",
"#X#X#X#X#X#X#X#X#X#X#X#X#X#X#X#X#X#X#X#X#X#X#X#X#X#X#X#X#X#X#X#X#X#X#X#X#X#X#X#X#X#X#X#X#X#X#X#X#X#X#X#X#X#X#X#X#X#X#X#X#X#X#X#X",
"#X#X#X#X#X#X#X#X#X#X#X#X#X#X#X#X#X#X#X#X#X#X#X#X#X#X#X#X#X#X#X#X#X#X#X#X#X#X#X#X#X#X#X#X#X#X#X#X#X#X#X#X#X#X#X#X#X#X#X#X#X#X#X#X"
};
