/* XPM */
static char *a4809ef38080453b869f058be6bf5bfez58RBalkPaMN9O0t[] = {
/* columns rows colors chars-per-pixel */
"64 64 73 1 ",
"  c None",
". c #796BF0",
"X c #7A6BF1",
"o c #7B6CF0",
"O c #7B6CF1",
"+ c #7D6DF1",
"@ c #7E6EF1",
"# c #7F6EF2",
"$ c #7F6FF2",
"% c #806FF2",
"& c #8170F2",
"* c #8370F2",
"= c #8471F1",
"- c #8672F2",
"; c #8773F3",
": c #8974F3",
"> c #8A75F3",
", c #8B76F2",
"< c #8D77F3",
"1 c #8E78F4",
"2 c #937AF3",
"3 c #9079F4",
"4 c #9179F4",
"5 c #917AF4",
"6 c #937AF4",
"7 c #947BF4",
"8 c #967CF4",
"9 c #967CF5",
"0 c #977DF5",
"q c #987EF5",
"w c #997EF5",
"e c #9A7FF4",
"r c #9A7FF5",
"t c #9B80F5",
"y c #9C80F5",
"u c #9D81F5",
"i c #9E81F6",
"p c #A082F6",
"a c #A183F6",
"s c #A284F6",
"d c #A384F6",
"f c #A485F6",
"g c #A686F7",
"h c #A787F7",
"j c #A888F7",
"k c #A988F7",
"l c #AA89F6",
"z c #AA88F7",
"x c #AA89F7",
"c c #AB89F7",
"v c #AB8AF7",
"b c #AC8AF7",
"n c #AD8AF8",
"m c #AE8BF8",
"M c #B18DF7",
"N c #B08CF8",
"B c #B38EF8",
"V c #B48FF8",
"C c #B690F9",
"Z c #B791F9",
"A c #B892F8",
"S c #BA92F9",
"D c #BB93F9",
"F c #BE95F9",
"G c #BF95F9",
"H c #BD94FA",
"J c #BE95FA",
"K c #C096F9",
"L c #C096FA",
"P c #C197FA",
"I c #C398FA",
"U c #C499FB",
"Y c #C599FB",
/* pixels */
"                                                                ",
"                                                                ",
"                                                                ",
"                                                                ",
"                                                                ",
"             UUUUUUUUUUUUUUUUUUUUUUUUUUUUUUUUUUUUUU             ",
"           UUUUUUUUUUUUUUUUUUUUUUUUUUUUUUUUUUUUUUUUUU           ",
"           IIIIIIIIIIIIIIIIIIIIIIIIIIIIIIIIIIIIIIIIII           ",
"           PPPPPPPPPPPPPPPPPPPPPPPPPPPPPPPPPPPPPPPPPP           ",
"           PPPPPPPPPPPPPPPPPPPPPPPPPPPPPPPPPPPPPPPPPP           ",
"           JJJJJJJJJJJJJJJJJJJJJJJJJJJJJJJJJJJJJJJJJJ           ",
"           JJJJJ                                JJJJJ           ",
"           AAADD                                AAAAD           ",
"           AAAAA                                AAAAA           ",
"           AAAAA                                AAAAA           ",
"           ZZZZZ                                ZZZZZ           ",
"           ZZZZZ                                ZZZZZ           ",
"           VVVVV                                VVVVV           ",
"           NNNNN                                NNNNN           ",
"           MMMMM                                MMMMM           ",
"           NNNNN                                NNNNN           ",
"           nnnnn                                nnnnn           ",
"           nnnnn           n                    nnnnn           ",
"           bbbbb           cc                   ccccc           ",
"                           cccc                 ccccc           ",
"                           ccccc                ccccc           ",
"                           gggggg               ggggg           ",
"                           ggggggg              ggggg           ",
"                           ggggggggg            ggggg           ",
"      ddddddddddddddddddddddddddddddd           ddddd           ",
"     aaaaaaaaaaaaaaaaaaaaaaaaaaaaaaaaa          aaaaa           ",
"     aaaaaaaaaaaaaaaaaaaaaaaaaaaaaaaaaa         aaaaa           ",
"     yyyyyyyyyyyyyyyyyyyyyyyyyyyyyyyyyy         yyyyy           ",
"     yyyyyyyyyyyyyyyyyyyyyyyyyyyyyyyyy          yyyyy           ",
"      yyyyyyyyyyyyyyyyyyyyytttttytyyy           ttttt           ",
"                           eeeeeeeee            eeeee           ",
"                           eeeeeee              eeeee           ",
"                           888888               88888           ",
"                           88888                88888           ",
"                           7777                 77777           ",
"           33333           33                   22223           ",
"           33333           3                    33333           ",
"           33333                                33333           ",
"           11111                                11111           ",
"           <<<<<                                <<<<<           ",
"           ,<<,,                                ,,,,,           ",
"           ,,,,,                                ,,,,,           ",
"           ,,,,,                                ,,,,,           ",
"           ===;;                                ===;;           ",
"           =====                                =====           ",
"           =====                                =====           ",
"           &&&&&                                &&&&&           ",
"           &&&&&                                &&&&&           ",
"           %%%%%++++++++++++++++++++++++++++++++%%%%%           ",
"           ++++++++++++++++++++++++++++++++++++++++++           ",
"           ++++++++++++++++++++++++++++++++++++++++++           ",
"           OOOOOOOOOOOOOOOOOOOOOOOOOOOOOOOOOOOOOOOOOO           ",
"           XXXXXXXXXXXXXXXXXXXXXXXXXXXXXXXXXXXXXXXXXX           ",
"             XXXXXXXXXXXXXXXXXXXXXXXXXXXXXXXXXXXXXX             ",
"                                                                ",
"                                                                ",
"                                                                ",
"                                                                ",
"                                                                "
};
