/* XPM */
static char *_1ea8e666fb741b391259e4b2120254edMzMBJbLOmWB4tH7[] = {
/* columns rows colors chars-per-pixel */
"64 64 93 2 ",
"   c None",
".  c #D57FCF",
"X  c #D67FCF",
"o  c #DF7BCB",
"O  c #D97DCD",
"+  c #D97DCE",
"@  c #D97ECE",
"#  c #DC7CCC",
"$  c #DD7CCC",
"%  c #D47FD0",
"&  c #EA77C7",
"*  c #ED76C6",
"=  c #EE76C6",
"-  c #E379CA",
";  c #E07BCB",
":  c #E37ACA",
">  c #E778C8",
",  c #F473C3",
"<  c #F772C2",
"1  c #F174C4",
"2  c #F175C5",
"3  c #F872C2",
"4  c #7E9FF0",
"5  c #5FABFC",
"6  c #6DA6F7",
"7  c #69A7F8",
"8  c #6AA7F8",
"9  c #63AAFB",
"0  c #66A8F9",
"q  c #66A9FA",
"w  c #60ABFC",
"e  c #77A2F3",
"r  c #70A5F6",
"t  c #74A4F4",
"y  c #7AA1F2",
"u  c #7BA1F2",
"i  c #78A2F3",
"p  c #7EA0F0",
"a  c #AD8EDE",
"s  c #BE87D8",
"d  c #BF87D8",
"f  c #B78ADA",
"g  c #B78ADB",
"h  c #B48BDC",
"j  c #B18CDD",
"k  c #B08DDD",
"l  c #B18DDD",
"z  c #BA89D9",
"x  c #BB89D9",
"c  c #B88ADA",
"v  c #BE88D8",
"b  c #819EEF",
"n  c #829EEF",
"m  c #849DEE",
"M  c #859DEE",
"N  c #849EEE",
"B  c #8B9BEB",
"V  c #8F99EA",
"C  c #8C9AEB",
"Z  c #899BEC",
"A  c #889CEC",
"S  c #899CEC",
"D  c #889CED",
"F  c #9597E7",
"G  c #9697E7",
"H  c #9F93E4",
"J  c #9995E6",
"K  c #9896E6",
"L  c #9996E6",
"P  c #9C94E5",
"I  c #9D94E5",
"U  c #9597E8",
"Y  c #9298E9",
"T  c #9398E9",
"R  c #AA8FE0",
"E  c #A093E3",
"W  c #A392E2",
"Q  c #A690E1",
"!  c #A790E1",
"~  c #A093E4",
"^  c #C186D7",
"/  c #C286D7",
"(  c #C585D5",
")  c #C485D6",
"_  c #CB83D3",
"`  c #CF81D1",
"'  c #CE81D2",
"]  c #CC82D3",
"[  c #CC83D3",
"{  c #CE82D2",
"}  c #C884D4",
"|  c #D280D0",
" . c #D380D0",
/* pixels */
"                                                                                                                                ",
"                                                                                                                                ",
"                                                                                                                                ",
"                                                                                                                                ",
"                                                                                                                                ",
"                                                                                                                                ",
"                                                                                                                                ",
"                                                                                                                                ",
"                                                                                                                                ",
"                                                                                                                                ",
"                                                            k a R Q                                                             ",
"                                                        g h k a R Q W W                                                         ",
"                                                    v x g h k a R Q W ~ P K                                                     ",
"                                                  ^ s x g h k a R Q W ~ P K G                                                   ",
"                                                ) ^ v x g h k a R Q W ~ P K G Y                                                 ",
"                                              } ) ^ v x g h k a R Q W ~ P K G Y V                                               ",
"                                              } ) ^ v x g h k a R Q W ~ P K G Y V                                               ",
"                                            _ } ) ^ v x g h k a R Q W ~ P K G Y V V                                             ",
"                                          ` ` } ) ^ v x g h k a R Q W ~ P K G Y V B A                                           ",
"                                          ` ` } ) ^ v x g h k a R Q W ~ P K G Y V B A                                           ",
"                                        | ` ` } ) ^ v x g h k a R Q W ~ P K G Y V B A M                                         ",
"                                        | ` ` } ) ^ v x g h k a R Q W ~ P K G Y V B A M                                         ",
"                                      . | ` ` } ) ^ v x g h k a R Q W ~ P K G Y V B A M b                                       ",
"                                      . | ` ` } ) ^ v x g h k a R Q W ~ P K G Y V B A M b                                       ",
"                                      . | ` ` } ) ^ v x g h k a R Q W ~ P K G Y V B A M b                                       ",
"                                      . | ` ` } ) ^ v x g h k a R Q W ~ P K G Y V B A M b                                       ",
"                                    @ . | ` ` } ) ^ v x   h k a R Q W   P K G Y V B A M b 4                                     ",
"                                    @ . | ` ` } )       g h k a R Q W W       Y V B A M b 4                                     ",
"                                    @ . | ` ` } ) ^ v x g h k     Q W W P K G Y V B A M b p                                     ",
"                                    @ . | ` ` } ) ^ s x               ~ P K G Y V B A M b p                                     ",
"                                      . | ` ` } )                           U Y V B A M b                                       ",
"                                        | ` ` } ) ^                       K G Y V B A                                           ",
"                                    @ .     _ } ) ^ s                     K G Y V V     b p                                     ",
"                                  $ @ . |       ) ^ v x x             H P K G Y     A M b p u                                   ",
"                                o $ @ . | ` `       v x g h k a R Q W ~ P K       B A M b p u u                                 ",
"                                : $ @ . | ` ` } )     x g h k a R Q W W P     Y V B A M b p u e                                 ",
"                                : $ @ . | ` ` } ) ^ s     h k a R Q W     K G Y V B A M b p u e                                 ",
"                                      . | ` ` } ) ^ v x g h k a R Q W W P K G Y V B A M b                                       ",
"                            > : : $     | ` ` } ) ^ v x g h k a R Q W ~ P K G Y V B A M     u e t r                             ",
"                          & > : : $ @     ` ` } ) ^ v x g h k a R Q W ~ P K G Y V B A     p u e t r 6                           ",
"                        * & > : : $ @ .   ` ` } ) ^ v x g h k a R Q W ~ P K G Y V B Z   b p u e t r 6 7                         ",
"                        * & > : : $ @ . %   ` } ) ^ v x g h k a R Q W ~ P K G Y V B   M b p u e t r 6 7                         ",
"                      1 * & > : : $ @ . |   _ } ) ^ v x g h k a R Q W ~ P K G Y V V   M b p u e t r 6 7 q                       ",
"                      1 * & > : : $ @ . |   _ } ) ^ v x g h k a R Q W ~ P K G Y V V   M b p u e t r 6 7 q                       ",
"                    , 1 * & > : : $ @ . |   _ } ) ^ v x g h k a R Q W ~ P K G Y V V   M b p u e t r 6 7 q 9                     ",
"                    , 1 * & > : : $ @ . |   _ } ) ^ v x g h k a R Q W ~ P K G Y V V   M b p u e t r 6 7 q 9                     ",
"                  , , 1 * & > : : $ @ . |   _ } ) ^ v x g h k a R Q W ~ P K G Y V V   M b p u e t r 6 7 q 9 w                   ",
"                  3 , 1 * & > : : $ @ . |   _ } ) ^ v x g h k a R Q W ~ P K G Y V V   M b p u e t r 6 7 q 9 5                   ",
"                  3 , 1 * & > : : $ @ . |   _ } ) ^ v x g h k a R Q W ~ P K G Y V V   M b p u e t r 6 7 q 9 5                   ",
"                  3 , 1 * & > : : $ @ . |   _ } ) ^ v x g h k a R Q W ~ P K G Y V V   M b p u e t r 6 7 q 9 5                   ",
"                  3 , 1 * & > : : $ @ . |   _ } ) ^ v x g h k a R Q W ~ P K G Y V V   M b p u e t r 6 7 q 9 5                   ",
"                  , , 1 * & > : : $ @ . |   _ } ) ^ v x g h k a R Q W ~ P K G Y V V   M b p u e t r 6 7 q 9 w                   ",
"                    , 1 * & > : : $ @ . |   _ } ) ^ v x g h k a R Q W ~ P K G Y V V   M b p u e t r 6 7 q 9                     ",
"                      1 * & > : : $ @ . |   _ } ) ^ s x g h k a R Q W W P K G Y V V   M b p u e t r 6 7 q                       ",
"                                                                                                                                ",
"                                                                                                                                ",
"                                                                                                                                ",
"                                                                                                                                ",
"                                                                                                                                ",
"                                                                                                                                ",
"                                                                                                                                ",
"                                                                                                                                ",
"                                                                                                                                ",
"                                                                                                                                "
};
