/* XPM */
static char *result[] = {
/* columns rows colors chars-per-pixel */
"64 64 148 2 ",
"   c #7C2D9D",
".  c #7D2D9D",
"X  c #7E2D9D",
"o  c #7F2D9D",
"O  c #7F2E9E",
"+  c #802E9D",
"@  c #822E9D",
"#  c #822F9D",
"$  c #832F9D",
"%  c #802E9E",
"&  c #812E9E",
"*  c #832F9E",
"=  c #842F9E",
"-  c #852F9E",
";  c #85309E",
":  c #86309E",
">  c #87309E",
",  c #87309F",
"<  c #88309F",
"1  c #88319F",
"2  c #89319F",
"3  c #8A319E",
"4  c #8B319E",
"5  c #8A319F",
"6  c #8B329F",
"7  c #8C329F",
"8  c #8D329F",
"9  c #8E329F",
"0  c #8E339F",
"q  c #8F339F",
"w  c #91349F",
"e  c #92349F",
"r  c #93349F",
"t  c #8F33A0",
"y  c #9033A0",
"u  c #9133A0",
"i  c #9134A0",
"p  c #9334A0",
"a  c #9434A0",
"s  c #9435A0",
"d  c #9535A0",
"f  c #9635A0",
"g  c #9635A1",
"h  c #9735A1",
"j  c #9736A1",
"k  c #9936A0",
"l  c #9836A1",
"z  c #9936A1",
"x  c #9A36A0",
"c  c #9A37A0",
"v  c #9B37A1",
"b  c #9C37A1",
"n  c #9D37A1",
"m  c #9D38A1",
"M  c #9E38A1",
"N  c #9E38A2",
"B  c #9F38A2",
"V  c #A139A1",
"C  c #A239A1",
"Z  c #A038A2",
"A  c #A039A2",
"S  c #A139A2",
"D  c #A239A2",
"F  c #A339A2",
"G  c #A33AA2",
"H  c #A43AA2",
"J  c #A53AA2",
"K  c #A63AA2",
"L  c #A63AA3",
"P  c #A63BA3",
"I  c #A73BA3",
"U  c #A93BA2",
"Y  c #A83BA3",
"T  c #A93BA3",
"R  c #A93CA2",
"E  c #AA3CA2",
"W  c #AA3CA3",
"Q  c #AB3CA3",
"!  c #AC3CA3",
"~  c #AC3DA3",
"^  c #AD3DA3",
"/  c #AE3DA3",
"(  c #AE3DA4",
")  c #AF3DA4",
"_  c #B03EA3",
"`  c #B13EA3",
"'  c #B23EA3",
"]  c #B03EA4",
"[  c #B13EA4",
"{  c #B23EA4",
"}  c #B33FA4",
"|  c #B43FA4",
" . c #B53FA4",
".. c #B640A4",
"X. c #B640A5",
"o. c #B740A5",
"O. c #B940A4",
"+. c #B941A4",
"@. c #B840A5",
"#. c #BA41A4",
"$. c #BA41A5",
"%. c #BB41A5",
"&. c #BC41A5",
"*. c #BC42A5",
"=. c #BD42A5",
"-. c #BE42A5",
";. c #BE42A6",
":. c #BF43A6",
">. c #C043A5",
",. c #C143A5",
"<. c #C243A5",
"1. c #C043A6",
"2. c #C243A6",
"3. c #C244A5",
"4. c #C244A6",
"5. c #C344A6",
"6. c #C444A6",
"7. c #C544A6",
"8. c #C545A6",
"9. c #C545A7",
"0. c #C645A7",
"q. c #C745A7",
"w. c #C845A7",
"e. c #C846A6",
"r. c #C946A6",
"t. c #C846A7",
"y. c #CA46A7",
"u. c #CB46A7",
"i. c #CB47A7",
"p. c #CC47A7",
"a. c #CD47A7",
"s. c #CE48A7",
"d. c #CD47A8",
"f. c #CE47A8",
"g. c #CE48A8",
"h. c #CF48A8",
"j. c #D048A7",
"k. c #D148A7",
"l. c #D149A7",
"z. c #D048A8",
"x. c #D149A8",
"c. c #D249A8",
"v. c #D349A8",
"b. c #D449A8",
"n. c #D44AA8",
"m. c #D54AA8",
"M. c #D54AA9",
"N. c None",
/* pixels */
"N.N.N.N.N.N.N.N.N.N.N.N.N.N.N.N.N.N.N.N.N.N.N.N.N.N.N.N.N.N.N.N.N.N.N.N.N.N.N.N.N.N.N.N.N.N.N.N.N.N.N.N.N.N.N.N.N.N.N.N.N.N.N.N.",
"N.N.N.N.N.N.N.N.N.N.N.N.N.N.N.N.N.N.N.N.N.N.N.N.N.N.N.N.N.N.N.N.N.N.N.N.N.N.N.N.N.N.N.N.N.N.N.N.N.N.N.N.N.N.N.N.N.N.N.N.N.N.N.N.",
"N.N.N.N.N.N.N.N.N.N.N.N.N.N.N.N.N.N.N.N.N.N.N.N.N.N.N.N.N.N.N.N.N.N.N.N.N.N.N.N.N.N.N.N.N.N.N.N.N.N.N.N.N.N.N.N.N.N.N.N.N.N.N.N.",
"N.N.N.N.N.N.N.N.N.N.N.N.N.N.N.N.N.N.N.N.N.N.N.N.N.N.N.N.N.N.N.N.N.N.N.N.N.N.N.N.N.N.N.N.N.N.N.N.N.N.N.N.N.N.N.N.N.N.N.N.N.N.N.N.",
"N.N.N.N.N.N.N.N.N.N.N.N.N.N.N.N.N.N.N.N.N.N.N.N.N.N.N.N.N.N.N.N.N.N.N.N.N.N.N.N.N.N.N.N.N.N.N.N.N.N.N.N.N.N.N.N.N.N.N.N.N.N.N.N.",
"N.N.N.N.N.N.N.N.N.N.N.N.N.N.N.N.N.N.N.N.N.N.N.N.N.N.N.N.N.N.N.N.N.N.N.N.N.N.N.N.N.N.N.N.N.N.N.N.N.N.N.N.N.N.N.N.N.N.N.N.N.N.N.N.",
"N.N.N.N.N.N.N.N.N.N.N.N.N.N.N.N.N.N.N.N.N.N.N.N.N.N.N.N.N.N.N.N.N.N.N.N.N.N.N.N.N.N.N.N.N.N.N.N.N.N.N.N.N.N.N.N.N.N.N.N.N.N.N.N.",
"N.N.N.N.N.N.N.N.N.N.N.N.N.N.N.N.N.N.N.N.N.N.N.N.N.N.N.N.N.N.N.N.N.N.N.N.N.N.N.N.N.N.N.N.N.N.N.N.N.N.N.N.N.N.N.N.N.N.N.N.N.N.N.N.",
"N.N.N.N.N.N.N.N.N.N.N.N.N.N.N.N.N.N.N.N.N.N.N.N.N.N.N.N.N.N.N.N.N.N.N.N.N.N.N.N.N.N.N.N.N.N.N.N.N.N.N.N.N.N.N.N.N.N.N.N.N.N.N.N.",
"N.N.N.N.N.N.N.N.N.N.N.N.N.N.N.N.N.N.N.N.N.N.N.N.N.N.N.N.N.N.N.N.N.N.N.N.N.N.N.N.N.N.N.N.N.N.N.N.N.N.N.N.N.N.N.N.N.N.N.N.N.N.N.N.",
"N.N.N.N.N.N.N.N.N.N.N.N.N.N.N.N.N.N.N.N.N.N.N.N.N.N.N.N.N.N.N.N.N.N.N.N.N.N.N.N.N.N.N.N.N.N.N.N.N.N.N.N.N.N.N.N.N.N.N.N.N.N.N.N.",
"N.N.N.N.N.N.N.N.N.N.N.N.N.N.N.N.N.N.N.N.N.N.N.N.N.N.N.N.N.N.i y 0 8 7 N.N.N.N.N.N.N.N.N.N.N.N.N.N.N.N.N.N.N.N.N.N.N.N.N.N.N.N.N.",
"N.N.N.N.N.N.N.N.N.N.N.N.N.N.N.N.N.N.N.N.N.N.N.N.N.N.z j f s r w y 0 8 6 5 2 N.N.N.N.N.N.N.N.N.N.N.N.N.N.N.N.N.N.N.N.N.N.N.N.N.N.",
"N.N.N.N.N.N.N.N.N.N.N.N.N.N.N.N.N.N.N.N.N.N.N.B m b c z j f s p w y 0 8 6 3 1 , : N.N.N.N.N.N.N.N.N.N.N.N.N.N.N.N.N.N.N.N.N.N.N.",
"N.N.N.N.N.N.N.N.N.N.N.N.N.N.N.N.N.N.N.N.J G C A B m b c z j f s p e y q 8 7 3 2 , : = $ N.N.N.N.N.N.N.N.N.N.N.N.N.N.N.N.N.N.N.N.",
"N.N.N.N.N.N.N.N.N.N.N.N.N.N.N.N.^ Q R Y P J G C S B M b v k l f d p e y t 8 7 3 2 , : = $ & + o N.N.N.N.N.N.N.N.N.N.N.N.N.N.N.N.",
"N.N.N.N.N.N.N.N.N.N.N.N.N.} ` ] / ~ Q E Y I J H C S B M b v k l f d p e y t 8 7 3 2 , : = $ & % o .   N.N.N.N.N.N.N.N.N.N.N.N.N.",
"N.N.N.N.N.N.N.N.N.N.N.N. .| } ` ] ( ^ Q E Y I J H C S B M b v k l g d p e y t 9 7 4 2 < : - $ @ % o .   N.N.N.N.N.N.N.N.N.N.N.N.",
"N.N.N.N.N.N.N.N.N.N.N.N.o...| } ` ] ( ^ Q E Y I J H D V B M n v x l h d a e u t 9 7 4 2 < : - * @ % o X N.N.N.N.N.N.N.N.N.N.N.N.",
"N.N.N.N.N.N.N.N.N.N.N.N.@.o.X.| } ` ] ( ^ Q E T I K H F V Z M n v x l h d a e u t 9 7 4 2 < : ; * # % O N.N.N.N.N.N.N.N.N.N.N.N.",
"N.N.N.N.N.N.N.N.N.N.N.N.N.+.@.X. .} ' ] ) ^ ! E T I K H F V Z N n v x l h d a e u t 9 7 6 3 1 > ; = # N.N.N.N.N.N.N.N.N.N.N.N.N.",
"N.N.N.N.N.N.N.N.N.N.N.N.N.%.+.@.X. .} ' ] ) ^ ! W U I K H F V Z N n v x z h f a r i y 0 8 6 3 1 > ; = N.N.N.N.N.N.N.N.N.N.N.N.N.",
"N.N.N.N.N.N.N.N.N.N.N.N.N.*.%.+.@.X. .} ' ] ) ^ ! W U I K J F C Z B n b x z j f s r w y 0 8 6 3 1 , ; N.N.N.N.N.N.N.N.N.N.N.N.N.",
"N.N.N.N.N.N.N.N.N.N.N.N.N.;.*.%.+.@.X. .| ' [ ) / ! Q U Y L J F C Z B m b c z j f s p w y 0 8 6 3 1 , N.N.N.N.N.N.N.N.N.N.N.N.N.",
"N.N.N.N.N.N.N.N.N.N.N.N.N.:.;.=.%.#.@.o. .| ' ` ) / ! Q U Y L J G C A B m b c z j f s p e y q 8 7 3 2 N.N.N.N.N.N.N.N.N.N.N.N.N.",
"N.N.N.N.N.N.N.N.N.N.N.N.N.,.1.;.=.%.#.@.o. .| { ` ) / ! Q R Y P J G C S B M b v k l f d p e y t 8 7 3 N.N.N.N.N.N.N.N.N.N.N.N.N.",
"N.N.N.N.N.N.N.N.N.N.N.N.N.5.,.1.;.=.%.#.@.o. .| { ` ] ( ^ Q E Y I J H C S B M b v k l f d p e y t 8 7 N.N.N.N.N.N.N.N.N.N.N.N.N.",
"N.N.N.N.N.N.N.N.N.N.N.N.N.6.5.,.1.;.=.&.$.O.o...| } ` ] ( ^ Q E Y I J H C S B M b v k l g d p e y t 9 N.N.N.N.N.N.N.N.N.N.N.N.N.",
"N.N.N.N.N.N.N.N.N.N.N.N.N.N.7.5.<.1.:.=.*.$.+.o...| } ` ] ( ^ Q E Y I J H D V B M n v x l h d a e u N.N.N.N.N.N.N.N.N.N.N.N.N.N.",
"N.N.N.N.N.N.N.N.N.N.N.N.N.N.0.8.5.3.>.:.=.*.$.+.o.X.| } ` ] ( ^ ! E T I K H F V Z M n v x l h d a e N.N.N.N.N.N.N.N.N.N.N.N.N.N.",
"N.N.N.N.N.N.N.N.N.N.N.N.N.N.w.0.8.5.4.>.:.=.*.$.+.@.X. .} ' ] ) ^ ! E T I K H F V Z N n v x l h d a N.N.N.N.N.N.N.N.N.N.N.N.N.N.",
"N.N.N.N.N.N.N.N.N.N.N.N.N.N.r.t.q.8.6.4.,.:.-.*.%.+.@.X. .} ' ] ) ^ ! W U I K H F V Z N n v x z h f N.N.N.N.N.N.N.N.N.N.N.N.N.N.",
"N.N.N.N.N.N.N.N.N.N.N.N.N.N.i.y.e.q.8.6.4.,.:.;.*.%.+.@.X. .} ' ] ) ^ ! W U I K J F C Z B n b x z j N.N.N.N.N.N.N.N.N.N.N.N.N.N.",
"N.N.N.N.N.N.N.N.N.N.N.N.N.N.N.i.y.e.q.8.6.4.,.:.;.*.%.+.@.X. .| ' [ ) / ! Q U Y L J F C Z B m b c N.N.N.N.N.N.N.N.N.N.N.N.N.N.N.",
"N.N.N.N.N.N.N.N.N.N.N.N.N.N.N.a.i.y.e.q.9.6.5.,.1.;.=.%.#.@.o. .| ' ` ) / ! Q U Y L J G C A B m b N.N.N.N.N.N.N.N.N.N.N.N.N.N.N.",
"N.N.N.N.N.N.N.N.N.N.N.N.N.N.N.s.a.p.y.r.q.0.6.5.,.1.;.=.%.#.@.o. .| { ` ) / ! Q R Y P J G C S B M N.N.N.N.N.N.N.N.N.N.N.N.N.N.N.",
"N.N.N.N.N.N.N.N.N.N.N.N.N.N.N.N.h.a.p.y.r.q.0.6.5.,.1.;.=.%.#.@.o. .| { ` ] ( ^ Q E Y I J H C S N.N.N.N.N.N.N.N.N.N.N.N.N.N.N.N.",
"N.N.N.N.N.N.N.N.N.N.N.N.N.N.N.N.j.h.d.p.y.r.q.0.6.5.,.1.;.=.&.$.+.o...| } ` ] ( ^ Q E Y I J H C N.N.N.N.N.N.N.N.N.N.N.N.N.N.N.N.",
"N.N.N.N.N.N.N.N.N.N.N.N.N.N.N.N.N.z.h.d.p.u.r.w.0.7.5.<.1.:.=.*.$.+.o...| } ` ] ( ^ Q E Y I J N.N.N.N.N.N.N.N.N.N.N.N.N.N.N.N.N.",
"N.N.N.N.N.N.N.N.N.N.N.N.N.N.N.N.N.c.k.h.f.p.u.r.w.0.8.5.3.>.:.=.*.$.+.o.X.| } ` ] ( ^ ! E T I N.N.N.N.N.N.N.N.N.N.N.N.N.N.N.N.N.",
"N.N.N.N.N.N.N.N.N.N.N.N.N.N.N.N.N.N.c.k.h.f.p.i.r.t.0.8.5.4.>.:.=.*.$.+.@.X. .} ' ] ) ^ ! W N.N.N.N.N.N.N.N.N.N.N.N.N.N.N.N.N.N.",
"N.N.N.N.N.N.N.N.N.N.N.N.N.N.N.N.N.N.N.c.l.h.g.p.i.r.t.q.8.6.4.,.:.-.*.%.+.@.X. .} ' ] ) ^ N.N.N.N.N.N.N.N.N.N.N.N.N.N.N.N.N.N.N.",
"N.N.N.N.N.N.N.N.N.N.N.N.N.N.N.N.N.N.N.b.v.l.z.g.a.i.y.e.q.8.6.4.,.:.;.*.%.+.@.X. .} ' _ ) N.N.N.N.N.N.N.N.N.N.N.N.N.N.N.N.N.N.N.",
"N.N.N.N.N.N.N.N.N.N.N.N.N.N.N.N.N.N.N.N.b.v.l.z.g.a.i.y.e.q.8.6.4.,.:.;.*.%.+.@.X. .| { N.N.N.N.N.N.N.N.N.N.N.N.N.N.N.N.N.N.N.N.",
"N.N.N.N.N.N.N.N.N.N.N.N.N.N.N.N.N.N.N.N.N.n.v.l.z.g.a.i.y.e.q.9.6.5.,.1.;.=.%.#.@.o. .N.N.N.N.N.N.N.N.N.N.N.N.N.N.N.N.N.N.N.N.N.",
"N.N.N.N.N.N.N.N.N.N.N.N.N.N.N.N.N.N.N.N.N.N.n.v.x.j.h.a.p.y.r.q.0.6.5.,.1.;.=.%.#.@.N.N.N.N.N.N.N.N.N.N.N.N.N.N.N.N.N.N.N.N.N.N.",
"N.N.N.N.N.N.N.N.N.N.N.N.N.N.N.N.N.N.N.N.N.N.N.n.v.c.j.h.a.p.y.r.q.0.6.5.,.1.;.=.%.N.N.N.N.N.N.N.N.N.N.N.N.N.N.N.N.N.N.N.N.N.N.N.",
"N.N.N.N.N.N.N.N.N.N.N.N.N.N.N.N.N.N.N.N.N.N.N.N.m.v.c.j.h.d.p.y.r.q.0.6.5.,.1.;.N.N.N.N.N.N.N.N.N.N.N.N.N.N.N.N.N.N.N.N.N.N.N.N.",
"N.N.N.N.N.N.N.N.N.N.N.N.N.N.N.N.N.N.N.N.N.N.N.N.N.m.v.c.j.h.d.p.u.r.w.0.7.5.2.N.N.N.N.N.N.N.N.N.N.N.N.N.N.N.N.N.N.N.N.N.N.N.N.N.",
"N.N.N.N.N.N.N.N.N.N.N.N.N.N.N.N.N.N.N.N.N.N.N.N.N.N.m.b.c.k.h.f.p.u.r.w.0.7.N.N.N.N.N.N.N.N.N.N.N.N.N.N.N.N.N.N.N.N.N.N.N.N.N.N.",
"N.N.N.N.N.N.N.N.N.N.N.N.N.N.N.N.N.N.N.N.N.N.N.N.N.N.N.M.b.c.k.h.f.p.i.r.w.N.N.N.N.N.N.N.N.N.N.N.N.N.N.N.N.N.N.N.N.N.N.N.N.N.N.N.",
"N.N.N.N.N.N.N.N.N.N.N.N.N.N.N.N.N.N.N.N.N.N.N.N.N.N.N.N.N.b.c.l.h.g.p.N.N.N.N.N.N.N.N.N.N.N.N.N.N.N.N.N.N.N.N.N.N.N.N.N.N.N.N.N.",
"N.N.N.N.N.N.N.N.N.N.N.N.N.N.N.N.N.N.N.N.N.N.N.N.N.N.N.N.N.N.b.c.x.h.N.N.N.N.N.N.N.N.N.N.N.N.N.N.N.N.N.N.N.N.N.N.N.N.N.N.N.N.N.N.",
"N.N.N.N.N.N.N.N.N.N.N.N.N.N.N.N.N.N.N.N.N.N.N.N.N.N.N.N.N.N.N.N.N.N.N.N.N.N.N.N.N.N.N.N.N.N.N.N.N.N.N.N.N.N.N.N.N.N.N.N.N.N.N.N.",
"N.N.N.N.N.N.N.N.N.N.N.N.N.N.N.N.N.N.N.N.N.N.N.N.N.N.N.N.N.N.N.N.N.N.N.N.N.N.N.N.N.N.N.N.N.N.N.N.N.N.N.N.N.N.N.N.N.N.N.N.N.N.N.N.",
"N.N.N.N.N.N.N.N.N.N.N.N.N.N.N.N.N.N.N.N.N.N.N.N.N.N.N.N.N.N.N.N.N.N.N.N.N.N.N.N.N.N.N.N.N.N.N.N.N.N.N.N.N.N.N.N.N.N.N.N.N.N.N.N.",
"N.N.N.N.N.N.N.N.N.N.N.N.N.N.N.N.N.N.N.N.N.N.N.N.N.N.N.N.N.N.N.N.N.N.N.N.N.N.N.N.N.N.N.N.N.N.N.N.N.N.N.N.N.N.N.N.N.N.N.N.N.N.N.N.",
"N.N.N.N.N.N.N.N.N.N.N.N.N.N.N.N.N.N.N.N.N.N.N.N.N.N.N.N.N.N.N.N.N.N.N.N.N.N.N.N.N.N.N.N.N.N.N.N.N.N.N.N.N.N.N.N.N.N.N.N.N.N.N.N.",
"N.N.N.N.N.N.N.N.N.N.N.N.N.N.N.N.N.N.N.N.N.N.N.N.N.N.N.N.N.N.N.N.N.N.N.N.N.N.N.N.N.N.N.N.N.N.N.N.N.N.N.N.N.N.N.N.N.N.N.N.N.N.N.N.",
"N.N.N.N.N.N.N.N.N.N.N.N.N.N.N.N.N.N.N.N.N.N.N.N.N.N.N.N.N.N.N.N.N.N.N.N.N.N.N.N.N.N.N.N.N.N.N.N.N.N.N.N.N.N.N.N.N.N.N.N.N.N.N.N.",
"N.N.N.N.N.N.N.N.N.N.N.N.N.N.N.N.N.N.N.N.N.N.N.N.N.N.N.N.N.N.N.N.N.N.N.N.N.N.N.N.N.N.N.N.N.N.N.N.N.N.N.N.N.N.N.N.N.N.N.N.N.N.N.N.",
"N.N.N.N.N.N.N.N.N.N.N.N.N.N.N.N.N.N.N.N.N.N.N.N.N.N.N.N.N.N.N.N.N.N.N.N.N.N.N.N.N.N.N.N.N.N.N.N.N.N.N.N.N.N.N.N.N.N.N.N.N.N.N.N.",
"N.N.N.N.N.N.N.N.N.N.N.N.N.N.N.N.N.N.N.N.N.N.N.N.N.N.N.N.N.N.N.N.N.N.N.N.N.N.N.N.N.N.N.N.N.N.N.N.N.N.N.N.N.N.N.N.N.N.N.N.N.N.N.N.",
"N.N.N.N.N.N.N.N.N.N.N.N.N.N.N.N.N.N.N.N.N.N.N.N.N.N.N.N.N.N.N.N.N.N.N.N.N.N.N.N.N.N.N.N.N.N.N.N.N.N.N.N.N.N.N.N.N.N.N.N.N.N.N.N."
};
